<mxfile host="app.diagrams.net" modified="2023-01-10T21:33:13.886Z" agent="5.0 (Windows NT 10.0; Win64; x64) AppleWebKit/537.36 (KHTML, like Gecko) Chrome/108.0.0.0 Safari/537.36" etag="n0IWYftllb0Hf30lGvtk" version="20.8.3" type="github">
  <diagram name="Page-1" id="c4acf3e9-155e-7222-9cf6-157b1a14988f">
    <mxGraphModel dx="1615" dy="958" grid="1" gridSize="10" guides="1" tooltips="1" connect="1" arrows="1" fold="1" page="1" pageScale="1" pageWidth="850" pageHeight="1100" background="none" math="0" shadow="0">
      <root>
        <mxCell id="0" />
        <mxCell id="1" parent="0" />
        <mxCell id="u3X4AU7v8dlmbGlDdiqq-5" value="User" style="swimlane;fontStyle=1;align=center;verticalAlign=top;childLayout=stackLayout;horizontal=1;startSize=26;horizontalStack=0;resizeParent=1;resizeParentMax=0;resizeLast=0;collapsible=1;marginBottom=0;" vertex="1" parent="1">
          <mxGeometry x="220" y="80" width="170" height="300" as="geometry" />
        </mxCell>
        <mxCell id="u3X4AU7v8dlmbGlDdiqq-6" value="- Uid: int&#xa;- Uname: int&#xa;- Uemail: string&#xa;- picture: img&#xa;- Pass: string&#xa;- confirmPass: string&#xa;- Gender: string&#xa;- Age: int&#xa;- Phone: string&#xa;- Address: string&#xa;- Rating: double" style="text;strokeColor=none;fillColor=none;align=left;verticalAlign=top;spacingLeft=4;spacingRight=4;overflow=hidden;rotatable=0;points=[[0,0.5],[1,0.5]];portConstraint=eastwest;" vertex="1" parent="u3X4AU7v8dlmbGlDdiqq-5">
          <mxGeometry y="26" width="170" height="164" as="geometry" />
        </mxCell>
        <mxCell id="u3X4AU7v8dlmbGlDdiqq-7" value="" style="line;strokeWidth=1;fillColor=none;align=left;verticalAlign=middle;spacingTop=-1;spacingLeft=3;spacingRight=3;rotatable=0;labelPosition=right;points=[];portConstraint=eastwest;strokeColor=inherit;" vertex="1" parent="u3X4AU7v8dlmbGlDdiqq-5">
          <mxGeometry y="190" width="170" height="8" as="geometry" />
        </mxCell>
        <mxCell id="u3X4AU7v8dlmbGlDdiqq-8" value="+ viewProfile(): void&#xa;+ updateProfile(): &#xa;+ viewNotification(int) &#xa;+ clearNotifiation(int): int&#xa;+ filterPost(string)&#xa;+ authenticateUser(int): bool" style="text;strokeColor=none;fillColor=none;align=left;verticalAlign=top;spacingLeft=4;spacingRight=4;overflow=hidden;rotatable=0;points=[[0,0.5],[1,0.5]];portConstraint=eastwest;" vertex="1" parent="u3X4AU7v8dlmbGlDdiqq-5">
          <mxGeometry y="198" width="170" height="102" as="geometry" />
        </mxCell>
        <mxCell id="u3X4AU7v8dlmbGlDdiqq-9" value="Notifiations" style="swimlane;fontStyle=1;align=center;verticalAlign=top;childLayout=stackLayout;horizontal=1;startSize=26;horizontalStack=0;resizeParent=1;resizeParentMax=0;resizeLast=0;collapsible=1;marginBottom=0;" vertex="1" parent="1">
          <mxGeometry x="500" y="80" width="160" height="114" as="geometry" />
        </mxCell>
        <mxCell id="u3X4AU7v8dlmbGlDdiqq-10" value="- Nid: int&#xa;- content: string&#xa;- time: string" style="text;strokeColor=none;fillColor=none;align=left;verticalAlign=top;spacingLeft=4;spacingRight=4;overflow=hidden;rotatable=0;points=[[0,0.5],[1,0.5]];portConstraint=eastwest;" vertex="1" parent="u3X4AU7v8dlmbGlDdiqq-9">
          <mxGeometry y="26" width="160" height="54" as="geometry" />
        </mxCell>
        <mxCell id="u3X4AU7v8dlmbGlDdiqq-11" value="" style="line;strokeWidth=1;fillColor=none;align=left;verticalAlign=middle;spacingTop=-1;spacingLeft=3;spacingRight=3;rotatable=0;labelPosition=right;points=[];portConstraint=eastwest;strokeColor=inherit;" vertex="1" parent="u3X4AU7v8dlmbGlDdiqq-9">
          <mxGeometry y="80" width="160" height="8" as="geometry" />
        </mxCell>
        <mxCell id="u3X4AU7v8dlmbGlDdiqq-12" value="+ getNotifiacation(int): int" style="text;strokeColor=none;fillColor=none;align=left;verticalAlign=top;spacingLeft=4;spacingRight=4;overflow=hidden;rotatable=0;points=[[0,0.5],[1,0.5]];portConstraint=eastwest;" vertex="1" parent="u3X4AU7v8dlmbGlDdiqq-9">
          <mxGeometry y="88" width="160" height="26" as="geometry" />
        </mxCell>
        <mxCell id="u3X4AU7v8dlmbGlDdiqq-20" value="Tenant" style="swimlane;fontStyle=1;align=center;verticalAlign=top;childLayout=stackLayout;horizontal=1;startSize=26;horizontalStack=0;resizeParent=1;resizeParentMax=0;resizeLast=0;collapsible=1;marginBottom=0;" vertex="1" parent="1">
          <mxGeometry x="120" y="440" width="160" height="240" as="geometry" />
        </mxCell>
        <mxCell id="u3X4AU7v8dlmbGlDdiqq-21" value="- tenantId: int" style="text;strokeColor=none;fillColor=none;align=left;verticalAlign=top;spacingLeft=4;spacingRight=4;overflow=hidden;rotatable=0;points=[[0,0.5],[1,0.5]];portConstraint=eastwest;" vertex="1" parent="u3X4AU7v8dlmbGlDdiqq-20">
          <mxGeometry y="26" width="160" height="64" as="geometry" />
        </mxCell>
        <mxCell id="u3X4AU7v8dlmbGlDdiqq-22" value="" style="line;strokeWidth=1;fillColor=none;align=left;verticalAlign=middle;spacingTop=-1;spacingLeft=3;spacingRight=3;rotatable=0;labelPosition=right;points=[];portConstraint=eastwest;strokeColor=inherit;" vertex="1" parent="u3X4AU7v8dlmbGlDdiqq-20">
          <mxGeometry y="90" width="160" height="8" as="geometry" />
        </mxCell>
        <mxCell id="u3X4AU7v8dlmbGlDdiqq-23" value="+ bookRoom(int)&#xa;+ savePost(): int&#xa;+ payRent(): &#xa;+ reviewRent()&#xa;+ viewMyHistory()&#xa;+ myReviews()&#xa;+ sendResponce(int)&#xa;+ payRent()&#xa;" style="text;strokeColor=none;fillColor=none;align=left;verticalAlign=top;spacingLeft=4;spacingRight=4;overflow=hidden;rotatable=0;points=[[0,0.5],[1,0.5]];portConstraint=eastwest;" vertex="1" parent="u3X4AU7v8dlmbGlDdiqq-20">
          <mxGeometry y="98" width="160" height="142" as="geometry" />
        </mxCell>
        <mxCell id="u3X4AU7v8dlmbGlDdiqq-24" value="Owners" style="swimlane;fontStyle=1;align=center;verticalAlign=top;childLayout=stackLayout;horizontal=1;startSize=26;horizontalStack=0;resizeParent=1;resizeParentMax=0;resizeLast=0;collapsible=1;marginBottom=0;" vertex="1" parent="1">
          <mxGeometry x="610" y="430" width="160" height="140" as="geometry" />
        </mxCell>
        <mxCell id="u3X4AU7v8dlmbGlDdiqq-25" value="- ownerId: int " style="text;strokeColor=none;fillColor=none;align=left;verticalAlign=top;spacingLeft=4;spacingRight=4;overflow=hidden;rotatable=0;points=[[0,0.5],[1,0.5]];portConstraint=eastwest;" vertex="1" parent="u3X4AU7v8dlmbGlDdiqq-24">
          <mxGeometry y="26" width="160" height="22" as="geometry" />
        </mxCell>
        <mxCell id="u3X4AU7v8dlmbGlDdiqq-26" value="" style="line;strokeWidth=1;fillColor=none;align=left;verticalAlign=middle;spacingTop=-1;spacingLeft=3;spacingRight=3;rotatable=0;labelPosition=right;points=[];portConstraint=eastwest;strokeColor=inherit;" vertex="1" parent="u3X4AU7v8dlmbGlDdiqq-24">
          <mxGeometry y="48" width="160" height="8" as="geometry" />
        </mxCell>
        <mxCell id="u3X4AU7v8dlmbGlDdiqq-27" value="+ postTolet()&#xa;+ updatePost(int)&#xa;+ deletePost(int)&#xa;+ getResponce(int)" style="text;strokeColor=none;fillColor=none;align=left;verticalAlign=top;spacingLeft=4;spacingRight=4;overflow=hidden;rotatable=0;points=[[0,0.5],[1,0.5]];portConstraint=eastwest;" vertex="1" parent="u3X4AU7v8dlmbGlDdiqq-24">
          <mxGeometry y="56" width="160" height="84" as="geometry" />
        </mxCell>
        <mxCell id="u3X4AU7v8dlmbGlDdiqq-28" value="Chat" style="swimlane;fontStyle=1;align=center;verticalAlign=top;childLayout=stackLayout;horizontal=1;startSize=26;horizontalStack=0;resizeParent=1;resizeParentMax=0;resizeLast=0;collapsible=1;marginBottom=0;" vertex="1" parent="1">
          <mxGeometry x="330" y="435" width="180" height="230" as="geometry" />
        </mxCell>
        <mxCell id="u3X4AU7v8dlmbGlDdiqq-29" value="- cid: int&#xa;- time: time&#xa;- messageno: int&#xa;- content: string&#xa;- picture: img&#xa;- sender: int&#xa;- receiver: int" style="text;strokeColor=none;fillColor=none;align=left;verticalAlign=top;spacingLeft=4;spacingRight=4;overflow=hidden;rotatable=0;points=[[0,0.5],[1,0.5]];portConstraint=eastwest;" vertex="1" parent="u3X4AU7v8dlmbGlDdiqq-28">
          <mxGeometry y="26" width="180" height="104" as="geometry" />
        </mxCell>
        <mxCell id="u3X4AU7v8dlmbGlDdiqq-30" value="" style="line;strokeWidth=1;fillColor=none;align=left;verticalAlign=middle;spacingTop=-1;spacingLeft=3;spacingRight=3;rotatable=0;labelPosition=right;points=[];portConstraint=eastwest;strokeColor=inherit;" vertex="1" parent="u3X4AU7v8dlmbGlDdiqq-28">
          <mxGeometry y="130" width="180" height="8" as="geometry" />
        </mxCell>
        <mxCell id="u3X4AU7v8dlmbGlDdiqq-31" value="+ sendMessage(string, int, int)&#xa;+ getMessage(string, int, int)&#xa;+ viewMessage(int, int)" style="text;strokeColor=none;fillColor=none;align=left;verticalAlign=top;spacingLeft=4;spacingRight=4;overflow=hidden;rotatable=0;points=[[0,0.5],[1,0.5]];portConstraint=eastwest;" vertex="1" parent="u3X4AU7v8dlmbGlDdiqq-28">
          <mxGeometry y="138" width="180" height="92" as="geometry" />
        </mxCell>
        <mxCell id="u3X4AU7v8dlmbGlDdiqq-32" value="Filter" style="swimlane;fontStyle=1;align=center;verticalAlign=top;childLayout=stackLayout;horizontal=1;startSize=26;horizontalStack=0;resizeParent=1;resizeParentMax=0;resizeLast=0;collapsible=1;marginBottom=0;" vertex="1" parent="1">
          <mxGeometry x="560" y="210" width="160" height="184" as="geometry" />
        </mxCell>
        <mxCell id="u3X4AU7v8dlmbGlDdiqq-33" value="+ type: string&#xa;+ Locaton: string&#xa;+ Price: int&#xa;+ size: int&#xa;+ floor: int&#xa;+ beds: int&#xa;+ bathrooms: int&#xa;+ garage: bool" style="text;strokeColor=none;fillColor=none;align=left;verticalAlign=top;spacingLeft=4;spacingRight=4;overflow=hidden;rotatable=0;points=[[0,0.5],[1,0.5]];portConstraint=eastwest;" vertex="1" parent="u3X4AU7v8dlmbGlDdiqq-32">
          <mxGeometry y="26" width="160" height="124" as="geometry" />
        </mxCell>
        <mxCell id="u3X4AU7v8dlmbGlDdiqq-34" value="" style="line;strokeWidth=1;fillColor=none;align=left;verticalAlign=middle;spacingTop=-1;spacingLeft=3;spacingRight=3;rotatable=0;labelPosition=right;points=[];portConstraint=eastwest;strokeColor=inherit;" vertex="1" parent="u3X4AU7v8dlmbGlDdiqq-32">
          <mxGeometry y="150" width="160" height="8" as="geometry" />
        </mxCell>
        <mxCell id="u3X4AU7v8dlmbGlDdiqq-35" value="+  " style="text;strokeColor=none;fillColor=none;align=left;verticalAlign=top;spacingLeft=4;spacingRight=4;overflow=hidden;rotatable=0;points=[[0,0.5],[1,0.5]];portConstraint=eastwest;" vertex="1" parent="u3X4AU7v8dlmbGlDdiqq-32">
          <mxGeometry y="158" width="160" height="26" as="geometry" />
        </mxCell>
        <mxCell id="u3X4AU7v8dlmbGlDdiqq-36" value="Post" style="swimlane;fontStyle=1;align=center;verticalAlign=top;childLayout=stackLayout;horizontal=1;startSize=26;horizontalStack=0;resizeParent=1;resizeParentMax=0;resizeLast=0;collapsible=1;marginBottom=0;" vertex="1" parent="1">
          <mxGeometry x="610" y="640" width="160" height="144" as="geometry" />
        </mxCell>
        <mxCell id="u3X4AU7v8dlmbGlDdiqq-37" value="- psotId: int&#xa;- posterId: int&#xa;- time: timr&#xa;- content: string&#xa;- picture: img:" style="text;strokeColor=none;fillColor=none;align=left;verticalAlign=top;spacingLeft=4;spacingRight=4;overflow=hidden;rotatable=0;points=[[0,0.5],[1,0.5]];portConstraint=eastwest;" vertex="1" parent="u3X4AU7v8dlmbGlDdiqq-36">
          <mxGeometry y="26" width="160" height="84" as="geometry" />
        </mxCell>
        <mxCell id="u3X4AU7v8dlmbGlDdiqq-38" value="" style="line;strokeWidth=1;fillColor=none;align=left;verticalAlign=middle;spacingTop=-1;spacingLeft=3;spacingRight=3;rotatable=0;labelPosition=right;points=[];portConstraint=eastwest;strokeColor=inherit;" vertex="1" parent="u3X4AU7v8dlmbGlDdiqq-36">
          <mxGeometry y="110" width="160" height="8" as="geometry" />
        </mxCell>
        <mxCell id="u3X4AU7v8dlmbGlDdiqq-39" value="." style="text;strokeColor=none;fillColor=none;align=left;verticalAlign=top;spacingLeft=4;spacingRight=4;overflow=hidden;rotatable=0;points=[[0,0.5],[1,0.5]];portConstraint=eastwest;" vertex="1" parent="u3X4AU7v8dlmbGlDdiqq-36">
          <mxGeometry y="118" width="160" height="26" as="geometry" />
        </mxCell>
        <mxCell id="u3X4AU7v8dlmbGlDdiqq-50" value="Property" style="swimlane;fontStyle=1;align=center;verticalAlign=top;childLayout=stackLayout;horizontal=1;startSize=26;horizontalStack=0;resizeParent=1;resizeParentMax=0;resizeLast=0;collapsible=1;marginBottom=0;" vertex="1" parent="1">
          <mxGeometry x="560" y="860" width="160" height="134" as="geometry" />
        </mxCell>
        <mxCell id="u3X4AU7v8dlmbGlDdiqq-51" value="- picture: img&#xa;- size: int&#xa;- floor: int&#xa;- security: bool&#xa;- otherDetails: string" style="text;strokeColor=none;fillColor=none;align=left;verticalAlign=top;spacingLeft=4;spacingRight=4;overflow=hidden;rotatable=0;points=[[0,0.5],[1,0.5]];portConstraint=eastwest;" vertex="1" parent="u3X4AU7v8dlmbGlDdiqq-50">
          <mxGeometry y="26" width="160" height="74" as="geometry" />
        </mxCell>
        <mxCell id="u3X4AU7v8dlmbGlDdiqq-52" value="" style="line;strokeWidth=1;fillColor=none;align=left;verticalAlign=middle;spacingTop=-1;spacingLeft=3;spacingRight=3;rotatable=0;labelPosition=right;points=[];portConstraint=eastwest;strokeColor=inherit;" vertex="1" parent="u3X4AU7v8dlmbGlDdiqq-50">
          <mxGeometry y="100" width="160" height="8" as="geometry" />
        </mxCell>
        <mxCell id="u3X4AU7v8dlmbGlDdiqq-53" value="+" style="text;strokeColor=none;fillColor=none;align=left;verticalAlign=top;spacingLeft=4;spacingRight=4;overflow=hidden;rotatable=0;points=[[0,0.5],[1,0.5]];portConstraint=eastwest;" vertex="1" parent="u3X4AU7v8dlmbGlDdiqq-50">
          <mxGeometry y="108" width="160" height="26" as="geometry" />
        </mxCell>
        <mxCell id="u3X4AU7v8dlmbGlDdiqq-54" value="Room" style="swimlane;fontStyle=1;align=center;verticalAlign=top;childLayout=stackLayout;horizontal=1;startSize=26;horizontalStack=0;resizeParent=1;resizeParentMax=0;resizeLast=0;collapsible=1;marginBottom=0;" vertex="1" parent="1">
          <mxGeometry x="320" y="1086" width="160" height="88" as="geometry" />
        </mxCell>
        <mxCell id="u3X4AU7v8dlmbGlDdiqq-55" value="- condition: string&#xa;- bathroom: bool&#xa;- seats: int" style="text;strokeColor=none;fillColor=none;align=left;verticalAlign=top;spacingLeft=4;spacingRight=4;overflow=hidden;rotatable=0;points=[[0,0.5],[1,0.5]];portConstraint=eastwest;" vertex="1" parent="u3X4AU7v8dlmbGlDdiqq-54">
          <mxGeometry y="26" width="160" height="54" as="geometry" />
        </mxCell>
        <mxCell id="u3X4AU7v8dlmbGlDdiqq-56" value="" style="line;strokeWidth=1;fillColor=none;align=left;verticalAlign=middle;spacingTop=-1;spacingLeft=3;spacingRight=3;rotatable=0;labelPosition=right;points=[];portConstraint=eastwest;strokeColor=inherit;" vertex="1" parent="u3X4AU7v8dlmbGlDdiqq-54">
          <mxGeometry y="80" width="160" height="8" as="geometry" />
        </mxCell>
        <mxCell id="u3X4AU7v8dlmbGlDdiqq-58" value="Apertment" style="swimlane;fontStyle=1;align=center;verticalAlign=top;childLayout=stackLayout;horizontal=1;startSize=26;horizontalStack=0;resizeParent=1;resizeParentMax=0;resizeLast=0;collapsible=1;marginBottom=0;" vertex="1" parent="1">
          <mxGeometry x="570" y="1070" width="160" height="158" as="geometry" />
        </mxCell>
        <mxCell id="u3X4AU7v8dlmbGlDdiqq-59" value="- bedrooms: int&#xa;- parking: bool&#xa;- rooms: int&#xa;- garage: bool" style="text;strokeColor=none;fillColor=none;align=left;verticalAlign=top;spacingLeft=4;spacingRight=4;overflow=hidden;rotatable=0;points=[[0,0.5],[1,0.5]];portConstraint=eastwest;" vertex="1" parent="u3X4AU7v8dlmbGlDdiqq-58">
          <mxGeometry y="26" width="160" height="124" as="geometry" />
        </mxCell>
        <mxCell id="u3X4AU7v8dlmbGlDdiqq-60" value="" style="line;strokeWidth=1;fillColor=none;align=left;verticalAlign=middle;spacingTop=-1;spacingLeft=3;spacingRight=3;rotatable=0;labelPosition=right;points=[];portConstraint=eastwest;strokeColor=inherit;" vertex="1" parent="u3X4AU7v8dlmbGlDdiqq-58">
          <mxGeometry y="150" width="160" height="8" as="geometry" />
        </mxCell>
        <mxCell id="u3X4AU7v8dlmbGlDdiqq-63" value="Extends" style="endArrow=block;endSize=16;endFill=0;html=1;rounded=0;exitX=0.45;exitY=-0.014;exitDx=0;exitDy=0;exitPerimeter=0;entryX=0.418;entryY=1.146;entryDx=0;entryDy=0;entryPerimeter=0;" edge="1" parent="1" source="u3X4AU7v8dlmbGlDdiqq-58" target="u3X4AU7v8dlmbGlDdiqq-53">
          <mxGeometry width="160" relative="1" as="geometry">
            <mxPoint x="780" y="1120" as="sourcePoint" />
            <mxPoint x="620" y="1120" as="targetPoint" />
          </mxGeometry>
        </mxCell>
        <mxCell id="u3X4AU7v8dlmbGlDdiqq-64" value="Extends" style="endArrow=block;endSize=16;endFill=0;html=1;rounded=0;exitX=0.443;exitY=-0.034;exitDx=0;exitDy=0;exitPerimeter=0;entryX=0.275;entryY=1.058;entryDx=0;entryDy=0;entryPerimeter=0;" edge="1" parent="1" source="u3X4AU7v8dlmbGlDdiqq-50" target="u3X4AU7v8dlmbGlDdiqq-39">
          <mxGeometry width="160" relative="1" as="geometry">
            <mxPoint x="790" y="910" as="sourcePoint" />
            <mxPoint x="630" y="910" as="targetPoint" />
          </mxGeometry>
        </mxCell>
        <mxCell id="u3X4AU7v8dlmbGlDdiqq-65" value="Transaction" style="swimlane;fontStyle=1;align=center;verticalAlign=top;childLayout=stackLayout;horizontal=1;startSize=26;horizontalStack=0;resizeParent=1;resizeParentMax=0;resizeLast=0;collapsible=1;marginBottom=0;" vertex="1" parent="1">
          <mxGeometry x="110" y="1058" width="160" height="144" as="geometry" />
        </mxCell>
        <mxCell id="u3X4AU7v8dlmbGlDdiqq-66" value="- transactionId: int&#xa;- amount: int&#xa;- time: time&#xa;- sender: int&#xa;- receiver: int" style="text;strokeColor=none;fillColor=none;align=left;verticalAlign=top;spacingLeft=4;spacingRight=4;overflow=hidden;rotatable=0;points=[[0,0.5],[1,0.5]];portConstraint=eastwest;" vertex="1" parent="u3X4AU7v8dlmbGlDdiqq-65">
          <mxGeometry y="26" width="160" height="84" as="geometry" />
        </mxCell>
        <mxCell id="u3X4AU7v8dlmbGlDdiqq-67" value="" style="line;strokeWidth=1;fillColor=none;align=left;verticalAlign=middle;spacingTop=-1;spacingLeft=3;spacingRight=3;rotatable=0;labelPosition=right;points=[];portConstraint=eastwest;strokeColor=inherit;" vertex="1" parent="u3X4AU7v8dlmbGlDdiqq-65">
          <mxGeometry y="110" width="160" height="8" as="geometry" />
        </mxCell>
        <mxCell id="u3X4AU7v8dlmbGlDdiqq-68" value="+ validate(int): bool" style="text;strokeColor=none;fillColor=none;align=left;verticalAlign=top;spacingLeft=4;spacingRight=4;overflow=hidden;rotatable=0;points=[[0,0.5],[1,0.5]];portConstraint=eastwest;" vertex="1" parent="u3X4AU7v8dlmbGlDdiqq-65">
          <mxGeometry y="118" width="160" height="26" as="geometry" />
        </mxCell>
        <mxCell id="u3X4AU7v8dlmbGlDdiqq-69" value="Rent" style="swimlane;fontStyle=1;align=center;verticalAlign=top;childLayout=stackLayout;horizontal=1;startSize=26;horizontalStack=0;resizeParent=1;resizeParentMax=0;resizeLast=0;collapsible=1;marginBottom=0;" vertex="1" parent="1">
          <mxGeometry x="110" y="770" width="160" height="200" as="geometry" />
        </mxCell>
        <mxCell id="u3X4AU7v8dlmbGlDdiqq-70" value="- rentId: int&#xa;- from: string&#xa;- to: string&#xa;- duration: int&#xa;- ownerId: int&#xa;- tenantId: int&#xa;- signed: bool" style="text;strokeColor=none;fillColor=none;align=left;verticalAlign=top;spacingLeft=4;spacingRight=4;overflow=hidden;rotatable=0;points=[[0,0.5],[1,0.5]];portConstraint=eastwest;" vertex="1" parent="u3X4AU7v8dlmbGlDdiqq-69">
          <mxGeometry y="26" width="160" height="114" as="geometry" />
        </mxCell>
        <mxCell id="u3X4AU7v8dlmbGlDdiqq-71" value="" style="line;strokeWidth=1;fillColor=none;align=left;verticalAlign=middle;spacingTop=-1;spacingLeft=3;spacingRight=3;rotatable=0;labelPosition=right;points=[];portConstraint=eastwest;strokeColor=inherit;" vertex="1" parent="u3X4AU7v8dlmbGlDdiqq-69">
          <mxGeometry y="140" width="160" height="8" as="geometry" />
        </mxCell>
        <mxCell id="u3X4AU7v8dlmbGlDdiqq-72" value="+ confirmRent(int): bool&#xa;+ cancelRent(): bool" style="text;strokeColor=none;fillColor=none;align=left;verticalAlign=top;spacingLeft=4;spacingRight=4;overflow=hidden;rotatable=0;points=[[0,0.5],[1,0.5]];portConstraint=eastwest;" vertex="1" parent="u3X4AU7v8dlmbGlDdiqq-69">
          <mxGeometry y="148" width="160" height="52" as="geometry" />
        </mxCell>
        <mxCell id="u3X4AU7v8dlmbGlDdiqq-75" value="" style="endArrow=block;startArrow=block;endFill=1;startFill=1;html=1;rounded=0;exitX=1.013;exitY=0.166;exitDx=0;exitDy=0;exitPerimeter=0;entryX=-0.01;entryY=0.95;entryDx=0;entryDy=0;entryPerimeter=0;" edge="1" parent="1" source="u3X4AU7v8dlmbGlDdiqq-23" target="u3X4AU7v8dlmbGlDdiqq-29">
          <mxGeometry width="160" relative="1" as="geometry">
            <mxPoint x="280" y="620" as="sourcePoint" />
            <mxPoint x="440" y="620" as="targetPoint" />
          </mxGeometry>
        </mxCell>
        <mxCell id="u3X4AU7v8dlmbGlDdiqq-76" value="" style="endArrow=block;startArrow=block;endFill=1;startFill=1;html=1;rounded=0;exitX=1.008;exitY=0.738;exitDx=0;exitDy=0;exitPerimeter=0;entryX=-0.022;entryY=0.728;entryDx=0;entryDy=0;entryPerimeter=0;" edge="1" parent="1" source="u3X4AU7v8dlmbGlDdiqq-29" target="u3X4AU7v8dlmbGlDdiqq-27">
          <mxGeometry width="160" relative="1" as="geometry">
            <mxPoint x="540" y="620" as="sourcePoint" />
            <mxPoint x="710" y="620" as="targetPoint" />
          </mxGeometry>
        </mxCell>
        <mxCell id="u3X4AU7v8dlmbGlDdiqq-78" value="Extends" style="endArrow=block;endSize=16;endFill=0;html=1;rounded=0;exitX=0.417;exitY=-0.019;exitDx=0;exitDy=0;exitPerimeter=0;entryX=0.228;entryY=1.026;entryDx=0;entryDy=0;entryPerimeter=0;" edge="1" parent="1" source="u3X4AU7v8dlmbGlDdiqq-20" target="u3X4AU7v8dlmbGlDdiqq-8">
          <mxGeometry width="160" relative="1" as="geometry">
            <mxPoint x="340" y="460" as="sourcePoint" />
            <mxPoint x="180" y="460" as="targetPoint" />
          </mxGeometry>
        </mxCell>
        <mxCell id="u3X4AU7v8dlmbGlDdiqq-79" value="Extends" style="endArrow=block;endSize=16;endFill=0;html=1;rounded=0;exitX=0.308;exitY=-0.019;exitDx=0;exitDy=0;exitPerimeter=0;entryX=0.765;entryY=1.043;entryDx=0;entryDy=0;entryPerimeter=0;" edge="1" parent="1" source="u3X4AU7v8dlmbGlDdiqq-24" target="u3X4AU7v8dlmbGlDdiqq-8">
          <mxGeometry width="160" relative="1" as="geometry">
            <mxPoint x="430" y="450" as="sourcePoint" />
            <mxPoint x="270" y="450" as="targetPoint" />
          </mxGeometry>
        </mxCell>
        <mxCell id="u3X4AU7v8dlmbGlDdiqq-80" value="Extends" style="endArrow=block;endSize=16;endFill=0;html=1;rounded=0;exitX=0.431;exitY=-0.015;exitDx=0;exitDy=0;exitPerimeter=0;entryX=0.452;entryY=1.044;entryDx=0;entryDy=0;entryPerimeter=0;" edge="1" parent="1" source="u3X4AU7v8dlmbGlDdiqq-69" target="u3X4AU7v8dlmbGlDdiqq-23">
          <mxGeometry width="160" relative="1" as="geometry">
            <mxPoint x="330" y="830" as="sourcePoint" />
            <mxPoint x="170" y="830" as="targetPoint" />
          </mxGeometry>
        </mxCell>
        <mxCell id="u3X4AU7v8dlmbGlDdiqq-82" value="Extends" style="endArrow=block;endSize=16;endFill=0;html=1;rounded=0;exitX=0.405;exitY=-0.03;exitDx=0;exitDy=0;exitPerimeter=0;entryX=0.14;entryY=1.208;entryDx=0;entryDy=0;entryPerimeter=0;" edge="1" parent="1" source="u3X4AU7v8dlmbGlDdiqq-54" target="u3X4AU7v8dlmbGlDdiqq-53">
          <mxGeometry width="160" relative="1" as="geometry">
            <mxPoint x="840" y="1130" as="sourcePoint" />
            <mxPoint x="680" y="1130" as="targetPoint" />
          </mxGeometry>
        </mxCell>
        <mxCell id="u3X4AU7v8dlmbGlDdiqq-86" value="Extends" style="endArrow=block;endSize=16;endFill=0;html=1;rounded=0;exitX=0.449;exitY=-0.014;exitDx=0;exitDy=0;exitPerimeter=0;entryX=0.508;entryY=1.042;entryDx=0;entryDy=0;entryPerimeter=0;" edge="1" parent="1" source="u3X4AU7v8dlmbGlDdiqq-65" target="u3X4AU7v8dlmbGlDdiqq-72">
          <mxGeometry width="160" relative="1" as="geometry">
            <mxPoint x="290" y="1080" as="sourcePoint" />
            <mxPoint x="130" y="1080" as="targetPoint" />
          </mxGeometry>
        </mxCell>
        <mxCell id="u3X4AU7v8dlmbGlDdiqq-88" value="" style="endArrow=block;startArrow=block;endFill=1;startFill=1;html=1;rounded=0;exitX=1.023;exitY=0.606;exitDx=0;exitDy=0;exitPerimeter=0;entryX=-0.027;entryY=0.361;entryDx=0;entryDy=0;entryPerimeter=0;" edge="1" parent="1" source="u3X4AU7v8dlmbGlDdiqq-6" target="u3X4AU7v8dlmbGlDdiqq-10">
          <mxGeometry width="160" relative="1" as="geometry">
            <mxPoint x="330" y="240" as="sourcePoint" />
            <mxPoint x="500" y="240" as="targetPoint" />
          </mxGeometry>
        </mxCell>
        <mxCell id="u3X4AU7v8dlmbGlDdiqq-96" value="Extends" style="endArrow=block;endSize=16;endFill=0;html=1;rounded=0;entryX=0.525;entryY=1.042;entryDx=0;entryDy=0;entryPerimeter=0;exitX=0.5;exitY=0;exitDx=0;exitDy=0;" edge="1" parent="1" source="u3X4AU7v8dlmbGlDdiqq-36" target="u3X4AU7v8dlmbGlDdiqq-27">
          <mxGeometry width="160" relative="1" as="geometry">
            <mxPoint x="600" y="620" as="sourcePoint" />
            <mxPoint x="760" y="620" as="targetPoint" />
          </mxGeometry>
        </mxCell>
        <mxCell id="u3X4AU7v8dlmbGlDdiqq-98" value="1" style="endArrow=open;html=1;endSize=12;startArrow=diamondThin;startSize=14;startFill=1;edgeStyle=orthogonalEdgeStyle;align=left;verticalAlign=bottom;rounded=0;exitX=1.035;exitY=0.309;exitDx=0;exitDy=0;exitPerimeter=0;entryX=-0.031;entryY=0.101;entryDx=0;entryDy=0;entryPerimeter=0;" edge="1" parent="1" source="u3X4AU7v8dlmbGlDdiqq-8" target="u3X4AU7v8dlmbGlDdiqq-32">
          <mxGeometry x="-1" y="3" relative="1" as="geometry">
            <mxPoint x="420" y="310" as="sourcePoint" />
            <mxPoint x="600" y="310" as="targetPoint" />
          </mxGeometry>
        </mxCell>
        <mxCell id="u3X4AU7v8dlmbGlDdiqq-100" value="Review" style="swimlane;fontStyle=1;align=center;verticalAlign=top;childLayout=stackLayout;horizontal=1;startSize=26;horizontalStack=0;resizeParent=1;resizeParentMax=0;resizeLast=0;collapsible=1;marginBottom=0;" vertex="1" parent="1">
          <mxGeometry x="330" y="766" width="160" height="124" as="geometry" />
        </mxCell>
        <mxCell id="u3X4AU7v8dlmbGlDdiqq-101" value="- reviewId: int&#xa;- comment: string&#xa;- date:: date&#xa;- like: int" style="text;strokeColor=none;fillColor=none;align=left;verticalAlign=top;spacingLeft=4;spacingRight=4;overflow=hidden;rotatable=0;points=[[0,0.5],[1,0.5]];portConstraint=eastwest;" vertex="1" parent="u3X4AU7v8dlmbGlDdiqq-100">
          <mxGeometry y="26" width="160" height="64" as="geometry" />
        </mxCell>
        <mxCell id="u3X4AU7v8dlmbGlDdiqq-102" value="" style="line;strokeWidth=1;fillColor=none;align=left;verticalAlign=middle;spacingTop=-1;spacingLeft=3;spacingRight=3;rotatable=0;labelPosition=right;points=[];portConstraint=eastwest;strokeColor=inherit;" vertex="1" parent="u3X4AU7v8dlmbGlDdiqq-100">
          <mxGeometry y="90" width="160" height="8" as="geometry" />
        </mxCell>
        <mxCell id="u3X4AU7v8dlmbGlDdiqq-103" value="+ showReview()" style="text;strokeColor=none;fillColor=none;align=left;verticalAlign=top;spacingLeft=4;spacingRight=4;overflow=hidden;rotatable=0;points=[[0,0.5],[1,0.5]];portConstraint=eastwest;" vertex="1" parent="u3X4AU7v8dlmbGlDdiqq-100">
          <mxGeometry y="98" width="160" height="26" as="geometry" />
        </mxCell>
        <mxCell id="u3X4AU7v8dlmbGlDdiqq-104" value="Extends" style="endArrow=block;endSize=16;endFill=0;html=1;rounded=0;entryX=0;entryY=0.5;entryDx=0;entryDy=0;exitX=0.5;exitY=0;exitDx=0;exitDy=0;" edge="1" parent="1" source="u3X4AU7v8dlmbGlDdiqq-100" target="u3X4AU7v8dlmbGlDdiqq-37">
          <mxGeometry width="160" relative="1" as="geometry">
            <mxPoint x="430" y="780" as="sourcePoint" />
            <mxPoint x="550" y="730" as="targetPoint" />
          </mxGeometry>
        </mxCell>
      </root>
    </mxGraphModel>
  </diagram>
</mxfile>
